<?xml version="1.0" standalone="no"?>
<!DOCTYPE svg PUBLIC "-//W3C//DTD SVG 20010904//EN"
 "http://www.w3.org/TR/2001/REC-SVG-20010904/DTD/svg10.dtd">
<svg version="1.0" xmlns="http://www.w3.org/2000/svg"
 width="1000.000000pt" height="224.000000pt" viewBox="0 0 1000.000000 224.000000"
 preserveAspectRatio="xMidYMid meet">

<g transform="translate(0.000000,224.000000) scale(0.100000,-0.100000)"
fill="#000000" stroke="none">
<path d="M20 1120 l0 -1120 4980 0 4980 0 0 1120 0 1120 -4980 0 -4980 0 0
-1120z m2263 515 c170 -36 284 -148 328 -325 18 -70 18 -268 0 -340 -33 -134
-112 -251 -209 -307 -137 -81 -358 -93 -500 -28 -114 52 -204 172 -232 310
-16 77 -16 242 0 320 35 170 141 297 290 350 100 35 218 43 323 20z m6053 -6
c23 -5 53 -13 66 -18 l26 -10 -25 -118 c-14 -65 -30 -123 -35 -130 -7 -9 -22
-7 -61 8 -29 12 -83 23 -122 26 -60 4 -77 1 -114 -19 -71 -37 -86 -76 -86
-228 0 -116 2 -129 27 -181 38 -77 79 -99 185 -99 44 0 102 7 129 15 73 22 75
16 61 -130 l-12 -120 -50 -13 c-27 -8 -102 -14 -165 -14 -180 -1 -278 31 -377
125 -94 89 -133 202 -133 387 0 72 6 138 15 175 54 204 193 326 407 355 67 9
197 4 264 -11z m-7403 -194 l-6 -195 152 0 152 0 -3 195 -3 195 163 0 c159 0
163 -1 157 -20 -4 -11 -7 -241 -8 -510 l-2 -490 -154 0 -154 0 8 190 7 190
-162 0 -161 0 7 -190 7 -190 -154 0 -154 0 -2 510 -1 510 159 0 159 0 -7 -195z
m2237 138 c13 -62 84 -362 101 -427 7 -24 14 -35 20 -29 10 10 109 360 129
456 l11 57 179 0 179 0 6 -52 c7 -65 75 -921 75 -948 0 -19 -7 -20 -134 -20
l-135 0 -5 43 c-3 23 -7 128 -10 232 -6 202 -14 295 -26 295 -4 0 -31 -69 -60
-152 -29 -84 -66 -190 -82 -235 l-30 -83 -118 0 -119 0 -25 83 c-13 45 -43
147 -66 227 -44 153 -56 178 -64 139 -9 -41 -25 -247 -32 -402 l-6 -147 -129
0 c-96 0 -129 3 -129 13 -1 6 21 236 47 510 l48 497 182 0 182 0 11 -57z
m1587 42 c3 -9 1 -64 -3 -123 l-9 -107 -207 3 -208 4 0 -77 0 -78 162 4 c190
5 174 19 163 -138 l-7 -103 -164 0 -165 0 3 -72 3 -73 210 0 210 0 -3 -110
c-1 -60 -4 -116 -7 -122 -3 -10 -84 -13 -357 -13 l-353 0 -1 510 -2 510 364 0
c319 0 365 -2 371 -15z m419 -242 c-7 -287 -9 -422 -7 -470 l1 -33 150 0 c126
0 152 -3 156 -15 4 -9 3 -67 -1 -130 l-7 -115 -305 0 -305 0 7 78 c9 91 9 489
-1 755 l-7 187 163 0 163 0 -7 -257z m518 230 c16 -68 131 -363 141 -363 10 0
136 273 166 359 l11 31 543 0 c491 0 543 -2 549 -16 6 -16 2 -95 -10 -193 l-6
-44 -109 5 -109 6 -6 -36 c-4 -19 -5 -194 -2 -388 l5 -354 -153 0 -154 0 7
283 c3 155 3 330 -1 388 l-8 106 -116 -1 -117 -1 2 114 c2 138 25 167 -197
-258 l-163 -313 7 -159 7 -159 -156 0 -157 0 7 158 7 157 -161 346 c-89 191
-161 350 -161 353 0 3 74 6 164 6 l164 0 6 -27z m1821 -160 c-4 -104 -8 -333
-7 -510 l0 -323 -152 0 -151 0 -1 510 -1 510 160 0 159 0 -7 -187z m1723 -301
c73 -268 135 -497 139 -509 l5 -23 -160 0 -160 0 -12 84 -13 85 -55 7 c-48 6
-221 -2 -230 -11 -2 -1 -8 -38 -15 -81 l-12 -79 -153 -3 c-83 -1 -152 1 -152
5 0 5 68 234 152 511 l152 502 190 0 191 0 133 -488z"/>
<path d="M2084 1391 c-43 -11 -52 -18 -71 -54 -38 -73 -34 -366 6 -444 24 -49
55 -63 135 -63 106 0 130 34 142 200 7 102 -9 257 -31 299 -8 17 -25 37 -38
45 -28 18 -103 27 -143 17z"/>
<path d="M8895 1338 c-2 -7 -20 -76 -40 -153 -20 -77 -38 -148 -41 -157 -5
-16 3 -18 80 -18 75 0 86 2 86 17 0 10 -14 86 -32 170 -29 140 -42 174 -53
141z"/>
</g>
</svg>
